<svg width="20" height="20" viewBox="0 0 20 20" fill="none" xmlns="http://www.w3.org/2000/svg">
<path d="M3 2V18H17V6L13 2H3ZM5 4H12L15 7V16H5V4Z" fill="#555555"/>
<path d="M9.58535 15.0147L6.68241 13.3455C6.55108 13.2695 6.44913 13.1692 6.37656 13.0448C6.30399 12.9204 6.2677 12.7822 6.2677 12.6301V9.3332C6.2677 9.18114 6.30399 9.04291 6.37656 8.91849C6.44913 8.79408 6.55108 8.69386 6.68241 8.61783L9.58535 6.94864C9.71668 6.87261 9.85491 6.83459 10.0001 6.83459C10.1452 6.83459 10.2834 6.87261 10.4148 6.94864L13.3177 8.61783C13.449 8.69386 13.551 8.79408 13.6236 8.91849C13.6961 9.04291 13.7324 9.18114 13.7324 9.3332V12.6301C13.7324 12.7822 13.6961 12.9204 13.6236 13.0448C13.551 13.1692 13.449 13.2695 13.3177 13.3455L10.4148 15.0147C10.2834 15.0907 10.1452 15.1287 10.0001 15.1287C9.85491 15.1287 9.71668 15.0907 9.58535 15.0147ZM9.58535 11.2201V14.0609L10.0001 14.2993L10.4148 14.0609V11.2201L12.903 9.77901V9.34357L12.4572 9.08438L10.0001 10.5047L7.54292 9.08438L7.09711 9.34357V9.77901L9.58535 11.2201Z" fill="#555555"/>
</svg>
