<svg width="20" height="20" viewBox="0 0 20 20" fill="none" xmlns="http://www.w3.org/2000/svg">
<g clip-path="url(#clip0_6332_173)">
<mask id="mask0_6332_173" style="mask-type:luminance" maskUnits="userSpaceOnUse" x="0" y="0" width="20" height="20">
<path d="M20 0H0V20H20V0Z" fill="white"/>
</mask>
<g mask="url(#mask0_6332_173)">
<path d="M3 2V18H17V6L13 2H3ZM5 4H12L15 7V16H5V4Z" fill="#555555"/>
<path d="M7.69556 10L3.87891 13.7009" stroke="#555555" stroke-width="2"/>
</g>
<path d="M9.62684 16.2585V7.88254H12.8668C13.2748 7.88254 13.6388 7.94654 13.9588 8.07454C14.2788 8.19454 14.5468 8.37054 14.7628 8.60254C14.9868 8.83454 15.1548 9.11454 15.2668 9.44254C15.3788 9.77054 15.4348 10.1385 15.4348 10.5465C15.4348 10.9545 15.3788 11.3225 15.2668 11.6505C15.1548 11.9785 14.9868 12.2585 14.7628 12.4905C14.5468 12.7225 14.2788 12.9025 13.9588 13.0305C13.6388 13.1505 13.2748 13.2105 12.8668 13.2105H11.4388V16.2585H9.62684ZM11.4388 11.7585H12.4108C12.8348 11.7585 13.1268 11.6785 13.2868 11.5185C13.4548 11.3585 13.5388 11.0945 13.5388 10.7265V10.3665C13.5388 9.99854 13.4548 9.73454 13.2868 9.57454C13.1268 9.41454 12.8348 9.33454 12.4108 9.33454H11.4388V11.7585Z" fill="#555555"/>
<circle cx="6.75659" cy="5.69507" r="2.43652" fill="#555555"/>
</g>
<defs>
<clipPath id="clip0_6332_173">
<rect width="20" height="20" fill="white"/>
</clipPath>
</defs>
</svg>
